<svg width="82" height="44" viewBox="0 0 82 44" fill="none" xmlns="http://www.w3.org/2000/svg">
<path d="M12.5017 26V18.4941H9.77706V17.5449H16.281V18.4941H13.5564V26H12.5017ZM20.2331 26L17.1159 17.5449H18.2233L20.7077 24.6347H20.8015L23.2859 17.5449H24.3933L21.2761 26H20.2331ZM34.2141 25.1562C33.4934 25.789 32.5032 26.1582 31.4778 26.1582C29.7962 26.1582 28.6184 25.1621 28.6184 23.7441C28.6184 22.7421 29.1633 21.9804 30.2942 21.3828C30.3704 21.3476 30.5286 21.2656 30.6223 21.2187C29.843 20.3984 29.5618 19.8535 29.5618 19.2382C29.5618 18.1542 30.4817 17.3456 31.718 17.3456C32.966 17.3456 33.8742 18.1425 33.8742 19.2499C33.8742 20.1171 33.3527 20.7499 32.0461 21.4354L34.1613 23.7088C34.425 23.1815 34.5597 22.49 34.5597 21.4354V21.2889H35.5441V21.4412C35.5441 22.7537 35.3097 23.7088 34.8468 24.4236L36.3176 26H34.9934L34.2141 25.1562ZM29.6731 23.6738C29.6731 24.623 30.4407 25.2676 31.5715 25.2676C32.3391 25.2676 33.1301 24.9629 33.593 24.4766L31.2024 21.8633C31.1379 21.8867 30.9856 21.9629 30.9036 22.0039C30.0891 22.4258 29.6731 23.0117 29.6731 23.6738ZM32.884 19.2852C32.884 18.629 32.4094 18.1836 31.7238 18.1836C31.05 18.1836 30.5695 18.6406 30.5695 19.2969C30.5695 19.7657 30.8097 20.1758 31.4777 20.8379C32.509 20.3105 32.884 19.8887 32.884 19.2852ZM46.4016 26V22.1504H41.761V26H40.7063V17.5449H41.761V21.2011H46.4016V17.5449H47.4563V26H46.4016ZM49.0471 22.8418C49.0471 20.8086 50.1604 19.5723 51.9592 19.5723C53.758 19.5723 54.8713 20.8086 54.8713 22.8418C54.8713 24.8691 53.758 26.1113 51.9592 26.1113C50.1604 26.1113 49.0471 24.8691 49.0471 22.8418ZM53.8283 22.8418C53.8283 21.3418 53.1545 20.4805 51.9592 20.4805C50.7639 20.4805 50.0901 21.3418 50.0901 22.8418C50.0901 24.3359 50.7639 25.2031 51.9592 25.2031C53.1545 25.2031 53.8283 24.3359 53.8283 22.8418ZM56.3337 19.6836H57.2946V20.6797H57.3884C57.6755 19.9766 58.3083 19.5723 59.1521 19.5723C60.0076 19.5723 60.6052 20.0235 60.8982 20.6797H60.992C61.3318 20.0117 62.0525 19.5723 62.9256 19.5723C64.2147 19.5723 64.9354 20.3106 64.9354 21.6348V26H63.9276V21.8691C63.9276 20.9375 63.4881 20.4804 62.5975 20.4804C61.7186 20.4804 61.1327 21.1366 61.1327 21.9394V26H60.1249V21.7109C60.1249 20.9609 59.6034 20.4804 58.8065 20.4804C57.9803 20.4804 57.3417 21.1952 57.3417 22.0859V26H56.3339L56.3337 19.6836ZM71.8464 24.3652C71.5534 25.4433 70.5691 26.1113 69.1862 26.1113C67.4342 26.1113 66.3385 24.8457 66.3385 22.8476C66.3385 20.8613 67.4518 19.5722 69.1862 19.5722C70.8913 19.5722 71.9284 20.7851 71.9284 22.748V23.1347H67.3874V23.1816C67.4401 24.4296 68.1374 25.2207 69.2097 25.2207C70.0242 25.2207 70.5749 24.9219 70.8386 24.3652H71.8464ZM67.3874 22.3203H70.8679C70.8445 21.2012 70.1765 20.4629 69.1745 20.4629C68.1667 20.4629 67.4636 21.2012 67.3874 22.3203Z" fill="white" fill-opacity="0.8"/>
</svg>
