<svg width="41" height="44" viewBox="0 0 41 44" fill="none" xmlns="http://www.w3.org/2000/svg">
<path d="M23.3798 23.7002C23.3798 24.6022 22.6118 25.2822 21.5748 25.2822C20.8428 25.2822 20.2978 24.9072 20.2978 24.2622C20.2978 23.6302 20.7198 23.2962 21.6808 23.2312L23.3798 23.1202V23.7002ZM21.9848 19.6282C20.6378 19.6282 19.6418 20.2962 19.5068 21.3092H20.5258C20.6668 20.8112 21.1938 20.5242 21.9498 20.5242C22.8938 20.5242 23.3798 20.9522 23.3798 21.7312V22.3052L21.5578 22.4172C20.0868 22.5052 19.2548 23.1552 19.2548 24.2862C19.2548 25.4402 20.1628 26.1672 21.3878 26.1672C22.2318 26.1672 22.9228 25.7982 23.3328 25.1242H23.4268V26.0552H24.3878V21.7312C24.3878 20.4192 23.5258 19.6282 21.9848 19.6282ZM28.7538 25.2032C27.5988 25.2032 26.9078 24.3182 26.9078 22.8422C26.9078 21.3712 27.6048 20.4802 28.7538 20.4802C29.8958 20.4802 30.6108 21.3942 30.6108 22.8422C30.6108 24.3012 29.9018 25.2032 28.7538 25.2032ZM30.5878 17.1762V20.6792H30.4998C30.1418 19.9882 29.3978 19.5722 28.5188 19.5722C26.9138 19.5722 25.8648 20.8612 25.8648 22.8422C25.8648 24.8282 26.9018 26.1112 28.5188 26.1112C29.3918 26.1112 30.1418 25.6952 30.5408 24.9922H30.6338V26.0002H31.5948V17.1762H30.5878ZM15.1938 22.0452H13.3308V18.4822H15.1938C16.4188 18.4822 17.0928 19.1212 17.0928 20.2812C17.0928 21.4002 16.3958 22.0452 15.1938 22.0452ZM15.4698 17.5452H12.2758V26.0002H13.3308V22.9822H15.4578C17.0458 22.9822 18.1768 21.8632 18.1768 20.2812C18.1768 18.6702 17.0688 17.5452 15.4698 17.5452ZM9.40579 25.9992H10.4138V19.6832H9.40579V25.9992ZM9.20679 17.7622C9.20679 17.3752 9.52279 17.0582 9.90979 17.0582C10.2968 17.0582 10.6128 17.3752 10.6128 17.7622C10.6128 18.1482 10.2968 18.4652 9.90979 18.4652C9.52279 18.4652 9.20679 18.1482 9.20679 17.7622Z" fill="white" fill-opacity="0.8"/>
</svg>
