<svg width="84" height="44" viewBox="0 0 84 44" fill="none" xmlns="http://www.w3.org/2000/svg">
<g clip-path="url(#clip0_2_563)">
<path d="M14.0679 23.5715H10.7047L9.85505 25.9914H8.74765L11.8649 17.5363H12.9078L16.0251 25.9914H14.9176L14.0679 23.5715ZM11.0153 22.675H13.7575L12.4333 18.9016H12.3395L11.0153 22.675ZM21.1138 21.6086C20.9497 20.9816 20.3932 20.4719 19.485 20.4719C18.3483 20.4719 17.6334 21.3801 17.6334 22.8098C17.6334 24.2688 18.36 25.1946 19.485 25.1946C20.3345 25.1946 20.9263 24.802 21.1138 24.0872H22.1334C21.9518 25.2474 21.0084 26.1028 19.4908 26.1028C17.7213 26.1028 16.5904 24.8196 16.5904 22.8098C16.5904 20.841 17.7154 19.5637 19.4848 19.5637C21.0201 19.5637 21.9576 20.4836 22.1333 21.6086H21.1138ZM27.7085 21.6086C27.5444 20.9816 26.9879 20.4719 26.0797 20.4719C24.943 20.4719 24.2281 21.3801 24.2281 22.8098C24.2281 24.2688 24.9547 25.1946 26.0797 25.1946C26.9293 25.1946 27.521 24.802 27.7085 24.0872H28.7281C28.5464 25.2474 27.6031 26.1028 26.0854 26.1028C24.3159 26.1028 23.1851 24.8196 23.1851 22.8098C23.1851 20.841 24.3101 19.5637 26.0795 19.5637C27.6147 19.5637 28.5522 20.4836 28.7279 21.6086H27.7085ZM35.2882 24.3566C34.9952 25.4347 34.0109 26.1027 32.628 26.1027C30.8759 26.1027 29.7803 24.8371 29.7803 22.839C29.7803 20.8527 30.8936 19.5636 32.628 19.5636C34.333 19.5636 35.3701 20.7765 35.3701 22.7394V23.1261H30.8291V23.173C30.8818 24.421 31.5791 25.2121 32.6514 25.2121C33.466 25.2121 34.0166 24.9133 34.2803 24.3566H35.2882ZM30.8291 22.3117H34.3097C34.2863 21.1926 33.6182 20.4543 32.6162 20.4543C31.6084 20.4543 30.9053 21.1926 30.8291 22.3117ZM39.0411 19.5637C40.3653 19.5637 41.2853 20.2199 41.4201 21.2571H40.424C40.2892 20.7532 39.7969 20.4192 39.0352 20.4192C38.2852 20.4192 37.6994 20.8001 37.6994 21.3626C37.6994 21.7962 38.0509 22.0657 38.795 22.2474L39.7677 22.4818C40.9572 22.7689 41.5314 23.2845 41.5314 24.1927C41.5314 25.3236 40.4357 26.1029 39.0002 26.1029C37.594 26.1029 36.6273 25.4291 36.5159 24.3802H37.5529C37.7229 24.9134 38.2268 25.2532 39.0354 25.2532C39.885 25.2532 40.4944 24.8489 40.4944 24.2688C40.4944 23.8352 40.1663 23.5422 39.4923 23.3782L38.4083 23.1145C37.2248 22.8274 36.6856 22.3176 36.6856 21.4036C36.6856 20.3547 37.6993 19.5637 39.0411 19.5637ZM45.085 19.5637C46.4092 19.5637 47.3292 20.2199 47.464 21.2571H46.4678C46.333 20.7532 45.8409 20.4192 45.0792 20.4192C44.3292 20.4192 43.7433 20.8001 43.7433 21.3626C43.7433 21.7962 44.0949 22.0657 44.839 22.2474L45.8116 22.4818C47.0011 22.7689 47.5754 23.2845 47.5754 24.1927C47.5754 25.3236 46.4797 26.1029 45.0442 26.1029C43.638 26.1029 42.6712 25.4291 42.5597 24.3802H43.5969C43.7668 24.9134 44.2706 25.2532 45.0793 25.2532C45.9289 25.2532 46.5382 24.8489 46.5382 24.2688C46.5382 23.8352 46.2102 23.5422 45.5363 23.3782L44.4523 23.1145C43.2687 22.8274 42.7295 22.3176 42.7295 21.4036C42.7295 20.3547 43.7432 19.5637 45.085 19.5637ZM48.7207 22.8332C48.7207 20.8 49.834 19.5637 51.6329 19.5637C53.4317 19.5637 54.5449 20.8 54.5449 22.8332C54.5449 24.8605 53.4317 26.1027 51.6329 26.1027C49.834 26.1027 48.7207 24.8605 48.7207 22.8332ZM53.502 22.8332C53.502 21.3332 52.8283 20.4719 51.6329 20.4719C50.4376 20.4719 49.7639 21.3332 49.7639 22.8332C49.7639 24.3273 50.4376 25.1945 51.6329 25.1945C52.8283 25.1945 53.502 24.3273 53.502 22.8332ZM56.0075 19.675H56.9683V20.6125H57.0621C57.2496 19.9973 57.9763 19.5637 58.8142 19.5637C58.9783 19.5637 59.1892 19.5754 59.3181 19.593V20.6008C59.236 20.5774 58.8727 20.5422 58.6735 20.5422C57.7127 20.5422 57.0154 21.1867 57.0154 22.0774V25.9915H56.0075L56.0075 19.675ZM60.2818 17.7531C60.2818 17.3664 60.5983 17.05 60.985 17.05C61.3717 17.05 61.688 17.3664 61.688 17.7531C61.688 18.1398 61.3717 18.4562 60.985 18.4562C60.5983 18.4562 60.2818 18.1398 60.2818 17.7531ZM60.481 19.675H61.4888V25.9914H60.481V19.675ZM68.4821 24.3566C68.1891 25.4347 67.2048 26.1027 65.8218 26.1027C64.0699 26.1027 62.9742 24.8371 62.9742 22.839C62.9742 20.8527 64.0874 19.5636 65.8218 19.5636C67.527 19.5636 68.564 20.7765 68.564 22.7394V23.1261H64.023V23.173C64.0757 24.421 64.773 25.2121 65.8453 25.2121C66.6598 25.2121 67.2106 24.9133 67.4743 24.3566H68.4821ZM64.023 22.3117H67.5036C67.4802 21.1926 66.8121 20.4543 65.8102 20.4543C64.8023 20.4543 64.0992 21.1926 64.023 22.3117ZM72.235 19.5637C73.5592 19.5637 74.479 20.2199 74.6139 21.2571H73.6178C73.4829 20.7532 72.9908 20.4192 72.229 20.4192C71.479 20.4192 70.8932 20.8001 70.8932 21.3626C70.8932 21.7962 71.2448 22.0657 71.9888 22.2474L72.9616 22.4818C74.1511 22.7689 74.7253 23.2845 74.7253 24.1927C74.7253 25.3236 73.6295 26.1029 72.194 26.1029C70.7878 26.1029 69.821 25.4291 69.7096 24.3802H70.7467C70.9166 24.9134 71.4205 25.2532 72.2291 25.2532C73.0788 25.2532 73.6882 24.8489 73.6882 24.2688C73.6882 23.8352 73.3601 23.5422 72.6862 23.3782L71.6021 23.1145C70.4185 22.8274 69.8795 22.3176 69.8795 21.4036C69.8795 20.3547 70.8932 19.5637 72.235 19.5637Z" fill="white" fill-opacity="0.8"/>
</g>
<defs>
<clipPath id="clip0_2_563">
<rect width="67" height="44" fill="white" transform="translate(8.40765)"/>
</clipPath>
</defs>
</svg>
