<svg width="32" height="44" viewBox="0 0 32 44" fill="none" xmlns="http://www.w3.org/2000/svg">
<g clip-path="url(#clip0_2_574)">
<path d="M22.9872 27.202L19.1172 23.332C19.8182 22.403 20.2392 21.251 20.2392 20C20.2392 16.94 17.7502 14.45 14.6892 14.45C11.6292 14.45 9.13916 16.94 9.13916 20C9.13916 23.061 11.6292 25.55 14.6892 25.55C15.9402 25.55 17.0922 25.129 18.0212 24.428L21.8912 28.298C22.0422 28.449 22.2412 28.526 22.4392 28.526C22.6372 28.526 22.8352 28.45 22.9872 28.298C23.2902 27.995 23.2902 27.505 22.9872 27.202ZM10.2392 20C10.2392 17.546 12.2362 15.55 14.6892 15.55C17.1432 15.55 19.1392 17.547 19.1392 20C19.1392 22.453 17.1432 24.45 14.6892 24.45C12.2352 24.45 10.2392 22.454 10.2392 20Z" fill="white" fill-opacity="0.8"/>
</g>
<defs>
<clipPath id="clip0_2_574">
<rect width="15" height="44" fill="white" transform="translate(8.68915)"/>
</clipPath>
</defs>
</svg>
