<svg width="61" height="44" viewBox="0 0 61 44" fill="none" xmlns="http://www.w3.org/2000/svg">
<g clip-path="url(#clip0_2_568)">
<path d="M50.669 18.0337V19.6687H52.075V20.5127H50.669V24.0867C50.669 24.8307 50.95 25.1467 51.606 25.1467C51.788 25.1467 51.888 25.1407 52.075 25.1237V25.9727C51.876 26.0087 51.683 26.0317 51.483 26.0317C50.183 26.0317 49.661 25.5517 49.661 24.3447V20.5127H48.642V19.6687H49.661V18.0337H50.669ZM44.538 19.6687H45.499V20.6057H45.592C45.78 19.9907 46.506 19.5567 47.344 19.5567C47.508 19.5567 47.719 19.5687 47.848 19.5867V20.5947C47.766 20.5707 47.403 20.5357 47.204 20.5357C46.243 20.5357 45.545 21.1797 45.545 22.0707V25.9847H44.538V19.6687ZM42.075 22.8267C42.075 21.3267 41.401 20.4657 40.206 20.4657C39.011 20.4657 38.337 21.3267 38.337 22.8267C38.337 24.3207 39.011 25.1877 40.206 25.1877C41.401 25.1877 42.075 24.3207 42.075 22.8267ZM37.294 22.8267C37.294 20.7937 38.407 19.5567 40.206 19.5567C42.005 19.5567 43.118 20.7937 43.118 22.8267C43.118 24.8537 42.005 26.0967 40.206 26.0967C38.407 26.0967 37.294 24.8537 37.294 22.8267ZM35.186 22.8267C35.186 21.3497 34.494 20.4657 33.34 20.4657C32.197 20.4657 31.477 21.3737 31.477 22.8267C31.477 24.2737 32.197 25.1877 33.334 25.1877C34.494 25.1877 35.186 24.3037 35.186 22.8267ZM36.229 22.8267C36.229 24.8017 35.18 26.0967 33.574 26.0967C32.672 26.0967 31.945 25.7037 31.6 25.0357H31.506V28.0947H30.498V19.6687H31.459V20.7227H31.553C31.957 19.9967 32.713 19.5567 33.574 19.5567C35.186 19.5567 36.229 20.8407 36.229 22.8267ZM28.181 22.8267C28.181 21.3497 27.49 20.4657 26.336 20.4657C25.193 20.4657 24.472 21.3737 24.472 22.8267C24.472 24.2737 25.193 25.1877 26.33 25.1877C27.49 25.1877 28.181 24.3037 28.181 22.8267ZM29.224 22.8267C29.224 24.8017 28.175 26.0967 26.57 26.0967C25.668 26.0967 24.941 25.7037 24.595 25.0357H24.502V28.0947H23.494V19.6687H24.455V20.7227H24.548C24.953 19.9967 25.709 19.5567 26.57 19.5567C28.181 19.5567 29.224 20.8407 29.224 22.8267ZM21.579 25.9847H20.618V24.9947H20.524C20.208 25.6977 19.534 26.0967 18.567 26.0967C17.149 26.0967 16.411 25.2527 16.411 23.7587V19.6687H17.419V23.5127C17.419 24.6487 17.841 25.1767 18.849 25.1767C19.962 25.1767 20.571 24.5137 20.571 23.4067V19.6687H21.579V25.9847ZM9.88899 23.7757C10.018 24.6607 10.861 25.2227 12.063 25.2227C13.199 25.2227 14.037 24.6077 14.037 23.7697C14.037 23.0497 13.51 22.5927 12.344 22.2997L11.26 22.0177C9.73099 21.6317 9.06799 20.9397 9.06799 19.7387C9.06799 18.3037 10.27 17.3307 12.057 17.3307C13.691 17.3307 14.91 18.3037 14.998 19.6687H13.938C13.791 18.8017 13.076 18.2857 12.022 18.2857C10.897 18.2857 10.152 18.8477 10.152 19.7037C10.152 20.3657 10.615 20.7467 11.781 21.0457L12.666 21.2797C14.418 21.7197 15.121 22.3987 15.121 23.6407C15.121 25.1937 13.897 26.1837 11.963 26.1837C10.17 26.1837 8.93399 25.2347 8.82199 23.7757H9.88899Z" fill="white" fill-opacity="0.8"/>
</g>
<defs>
<clipPath id="clip0_2_568">
<rect width="44" height="44" fill="white" transform="translate(8.5484)"/>
</clipPath>
</defs>
</svg>
