<svg width="40" height="44" viewBox="0 0 40 44" fill="none" xmlns="http://www.w3.org/2000/svg">
<g clip-path="url(#clip0_2_521)">
<path d="M16.4374 25.9987V19.5417H16.3671L13.7011 25.9987H12.8104L10.1444 19.5417H10.0741V25.9987H9.08966V17.5436H10.3143L13.2088 24.5983H13.3026L16.1971 17.5436H17.4217V25.9987H16.4374ZM18.954 24.2291C18.954 23.0982 19.786 22.4479 21.2567 22.36L23.079 22.2487V21.6745C23.079 20.8952 22.5927 20.4675 21.6493 20.4675C20.8934 20.4675 20.3661 20.7546 20.2255 21.2527H19.206C19.3408 20.239 20.3369 19.5711 21.6845 19.5711C23.2255 19.5711 24.0868 20.3621 24.0868 21.6746V25.9988H23.1259V25.067H23.0321C22.6219 25.7408 21.9305 26.11 21.0868 26.11C19.8622 26.11 18.954 25.3834 18.954 24.2291ZM23.079 23.6432V23.0631L21.3798 23.1744C20.4189 23.2389 19.997 23.5728 19.997 24.2056C19.997 24.8501 20.5419 25.2251 21.2743 25.2251C22.3114 25.2252 23.079 24.5455 23.079 23.6432ZM30.037 21.6159C29.8729 20.9889 29.3163 20.4792 28.4081 20.4792C27.2714 20.4792 26.5565 21.3874 26.5565 22.8171C26.5565 24.2761 27.2831 25.2019 28.4081 25.2019C29.2577 25.2019 29.8495 24.8093 30.037 24.0945H31.0565C30.8749 25.2547 29.9315 26.1101 28.4139 26.1101C26.6444 26.1101 25.5135 24.8269 25.5135 22.8171C25.5135 20.8483 26.6385 19.571 28.408 19.571C29.9432 19.571 30.8807 20.4909 31.0564 21.6159H30.037Z" fill="white" fill-opacity="0.8"/>
</g>
<defs>
<clipPath id="clip0_2_521">
<rect width="23" height="44" fill="white" transform="translate(8.28156)"/>
</clipPath>
</defs>
</svg>
