<svg width="52" height="44" viewBox="0 0 52 44" fill="none" xmlns="http://www.w3.org/2000/svg">
<path d="M37.6858 17.1758H38.6938V20.6798H38.7878C39.1038 19.9828 39.7658 19.5718 40.7328 19.5718C42.0688 19.5718 42.9128 20.4278 42.9128 21.9098V25.9998H41.9048V22.1558C41.9048 21.0368 41.4008 20.4808 40.4458 20.4808C39.3148 20.4808 38.6938 21.1958 38.6938 22.2618V25.9998H37.6858V17.1758ZM35.2658 21.6168C35.1018 20.9898 34.5448 20.4808 33.6368 20.4808C32.4998 20.4808 31.7848 21.3888 31.7848 22.8188C31.7848 24.2778 32.5118 25.2028 33.6368 25.2028C34.4858 25.2028 35.0778 24.8108 35.2658 24.0958H36.2848C36.1028 25.2558 35.1598 26.1118 33.6428 26.1118C31.8728 26.1118 30.7418 24.8278 30.7418 22.8188C30.7418 20.8498 31.8668 19.5718 33.6368 19.5718C35.1718 19.5718 36.1088 20.4918 36.2848 21.6168H35.2658ZM28.7328 18.0488V19.6838H30.1398V20.5278H28.7328V24.1018C28.7328 24.8458 29.0148 25.1618 29.6708 25.1618C29.8528 25.1618 29.9518 25.1558 30.1398 25.1388V25.9888C29.9398 26.0238 29.7468 26.0468 29.5478 26.0468C28.2468 26.0468 27.7258 25.5668 27.7258 24.3598V20.5278H26.7058V19.6838H27.7258V18.0488H28.7328ZM24.5328 23.6448V23.0648L22.8338 23.1758C21.8728 23.2398 21.4508 23.5738 21.4508 24.2068C21.4508 24.8518 21.9958 25.2268 22.7278 25.2268C23.7658 25.2268 24.5328 24.5468 24.5328 23.6448ZM20.4078 24.2308C20.4078 23.0998 21.2398 22.4488 22.7108 22.3618L24.5328 22.2498V21.6758C24.5328 20.8968 24.0468 20.4688 23.1028 20.4688C22.3478 20.4688 21.8198 20.7558 21.6798 21.2538H20.6598C20.7948 20.2398 21.7908 19.5718 23.1388 19.5718C24.6798 19.5718 25.5408 20.3638 25.5408 21.6758V25.9998H24.5798V25.0688H24.4858C24.0758 25.7418 23.3848 26.1118 22.5408 26.1118C21.3158 26.1118 20.4078 25.3848 20.4078 24.2308ZM12.7238 25.9998H11.7278L9.42476 17.5448H10.5258L12.2078 24.4178H12.2778L14.1708 17.5448H15.2368L17.1298 24.4178H17.1998L18.8818 17.5448H19.9828L17.6808 25.9998H16.6848L14.7388 19.3258H14.6688L12.7238 25.9998Z" fill="white" fill-opacity="0.8"/>
</svg>
